<?xml version="1.0" encoding="UTF-8"?>
<svg version="1.1" viewBox="0 0 600 260" xmlns="http://www.w3.org/2000/svg" xmlns:xlink="http://www.w3.org/1999/xlink">
	<g transform="translate(0,195)">
		<g fill="#125a94">
			<path d="m18.3-82.4-14.7 74h62.2l51.4-42.4-11 42.4h47.5l124-74h-52.1l-74.2 44.2 8.09-44.2h-42.8l-51.2 44.2 9.63-44.2z"/>
			<path d="m320-97.4-152 89h54.4l13.8-11.4h32.6l-33.8 61.1 3.36 2.77h72.1a13.8 13.8 0 0 1-0.0625-1.1 13.8 13.8 0 0 1 11.3-13.6v-20.4h-18.5v-4h18.5v-102zm-27.6 25.7-17.3 33.6h-23.7zm-58.6 116-9.53 17.3h97.9v-13.6h-84.7z"/>
			<path d="m331-97.4 152 89h-54.4l-13.8-11.4h-32.6l33.8 61.1-3.36 2.77h-72.1a13.8 13.8 0 0 0 0.0625-1.1 13.8 13.8 0 0 0-11.3-13.6v-20.4h18.5v-4h-18.5v-102zm27.6 25.7 17.3 33.6h23.7zm58.6 116 9.53 17.3h-97.9v-13.6h84.7z"/>
			<path d="m457-33.3c55.7 10.9 79.8 7.5 79.8 4.05-0.05-8.97-39.3-8.47-70.9-13.6-22.6-3.68-71.5-21.1-71.5-34.4 0-3.64 5.89-5.17 20.9-5.17 7.16 0 55.7 0 73.5 20.2-46.3-5.48-41 2.52-22.2 5.96 29 5.29 54.6 7.13 79.3 13.9 32.9 9.09 51.3 20.9 51.3 28.4 0 9.07-39.2 9.21-112-2.79z"/>
		</g>
		<path d="m18.6-182h126" style="stroke-width:1;stroke:#ed2a2f"/>
		<g fill="#ed2a2f">
			<path d="m8.68-188h20.5l-3.95 13h-20.5z"/>
			<rect x="69.5" y="-191" width="18.4" height="18.4"/>
			<path d="m38.5-188h20.5l-3.95 13h-20.5z"/>
			<path d="m104-188h20.5l-3.95 13h-20.5z"/>
			<path d="m134-188h20.5l-3.95 13h-20.5z"/>
			<path d="m81.1-164-9.98 11.3h52.3z"/>
		</g>
		<path d="m67.1-148-7.23 8.19h111l-30.7-8.19z" fill="#ee3136"/>
		<path d="m55.2-134-6.18 6.99h168l-26.2-6.99z" fill="#ed3136"/>
		<path d="m44.3-122-5.76 6.52h223l-24.4-6.52z" fill="#ef3b40"/>
		<path d="m33.5-110-5.28 5.98h277l-22.4-5.98z" fill="#f04d51"/>
	</g>
</svg>
